<?xml version="1.0" standalone="no"?>
<!DOCTYPE svg PUBLIC "-//W3C//DTD SVG 20010904//EN"
 "http://www.w3.org/TR/2001/REC-SVG-20010904/DTD/svg10.dtd">
<svg version="1.0" xmlns="http://www.w3.org/2000/svg"
 width="480.000000pt" height="480.000000pt" viewBox="0 0 480.000000 480.000000"
 preserveAspectRatio="xMidYMid meet">
<metadata>
Created by potrace 1.14, written by Peter Selinger 2001-2017
</metadata>
<g transform="translate(0.000000,480.000000) scale(0.100000,-0.100000)"
fill="#000000" stroke="none">
<path d="M2219 4706 c-2 -2 -38 -7 -79 -10 -648 -60 -1277 -410 -1672 -931
-299 -394 -458 -876 -452 -1367 1 -116 5 -173 19 -278 65 -491 303 -955 671
-1310 391 -376 872 -601 1429 -666 86 -10 406 -12 485 -3 143 16 176 21 270
40 600 123 1130 465 1478 955 217 306 369 712 400 1068 17 202 5 475 -29 626
-5 25 -11 54 -13 65 -2 11 -12 49 -21 85 -219 840 -928 1498 -1810 1678 -55
12 -127 24 -160 28 -33 3 -69 8 -80 11 -23 6 -431 14 -436 9z m436 -79 c11 -3
47 -8 80 -12 205 -23 488 -110 710 -219 636 -313 1087 -890 1219 -1558 49
-250 54 -549 11 -778 -19 -104 -37 -180 -61 -258 -15 -48 -28 -89 -29 -92 -5
-28 -70 -176 -114 -264 -207 -407 -550 -753 -965 -972 -251 -132 -525 -217
-836 -260 -72 -9 -429 -13 -495 -4 -33 5 -80 11 -105 14 -84 11 -107 15 -201
36 -606 140 -1110 489 -1442 1000 -143 221 -261 517 -303 760 -4 25 -8 47 -9
50 -1 3 -5 34 -9 70 -5 36 -10 74 -13 85 -6 31 -6 323 1 395 74 758 548 1430
1251 1775 187 91 412 169 582 199 38 7 222 35 258 39 43 5 446 0 470 -6z"/>
<path d="M3046 3075 c-15 -8 -41 -17 -59 -20 -18 -3 -45 -7 -62 -10 -29 -5
-210 -34 -250 -40 -11 -2 -65 -11 -120 -20 -55 -9 -125 -19 -155 -22 -30 -3
-59 -9 -65 -13 -5 -5 -32 -12 -60 -16 -27 -4 -52 -9 -55 -9 -5 -1 -76 -14
-110 -20 -8 -1 -35 -6 -60 -10 -25 -4 -54 -9 -65 -11 -27 -6 -47 -9 -220 -39
-82 -14 -157 -27 -165 -30 -15 -4 91 4 121 10 9 2 40 6 70 10 30 3 113 15 184
25 72 11 150 22 175 25 25 3 56 8 70 10 14 2 45 6 70 10 54 6 115 15 150 20
43 7 163 24 215 30 28 4 91 13 140 20 50 8 117 17 150 20 33 3 74 10 90 14 56
15 161 -5 380 -71 279 -83 956 -336 990 -369 7 -7 5 -9 -5 -5 -8 2 -168 7
-355 11 -187 3 -457 8 -600 12 -451 11 -933 6 -1120 -12 -22 -2 -87 -6 -145
-10 -58 -3 -126 -8 -152 -11 -43 -5 -48 -3 -48 14 0 29 16 38 104 60 74 19
118 44 104 58 -4 3 -47 0 -97 -8 -50 -8 -91 -12 -91 -9 0 3 7 33 15 66 22 93
21 97 -22 93 l-38 -3 -20 -80 c-24 -98 -26 -100 -64 -103 -55 -4 -83 -20 -79
-45 3 -19 9 -22 46 -22 33 0 42 -4 42 -17 0 -10 -8 -18 -17 -19 -10 0 -36 -2
-57 -5 -22 -2 -45 1 -52 7 -22 18 -81 12 -121 -12 -21 -13 -42 -23 -46 -21 -5
1 -5 -2 -2 -8 4 -6 -1 -20 -10 -30 -23 -26 -36 -87 -24 -119 6 -14 22 -38 35
-52 33 -35 43 -100 19 -120 -50 -40 -86 -80 -83 -91 7 -20 34 -31 61 -24 34 8
84 59 92 95 4 20 23 40 63 67 64 44 92 70 92 84 0 17 -15 11 -79 -30 -34 -22
-63 -40 -65 -40 -5 0 -72 103 -79 122 -6 18 36 91 71 122 15 12 29 16 46 12
22 -5 25 -10 19 -37 -5 -27 -3 -31 13 -27 13 2 22 16 28 46 6 23 15 42 20 43
6 0 22 2 36 4 14 1 28 1 31 -1 3 -2 -2 -45 -11 -96 -10 -51 -20 -111 -23 -133
-17 -135 -31 -194 -46 -198 -14 -4 -14 -5 -1 -6 12 -1 16 -13 16 -50 0 -53 17
-83 40 -74 8 3 14 15 14 27 0 11 5 38 11 59 l10 37 162 -6 c89 -3 198 -7 242
-9 44 -2 96 -4 116 -4 l36 -1 -4 -47 c-2 -27 -5 -63 -8 -80 -2 -18 0 -33 4
-33 4 0 9 21 10 48 2 26 4 61 5 77 l2 30 90 -1 c156 -2 487 -15 495 -20 4 -2
10 -47 14 -101 7 -87 9 -94 21 -72 15 28 18 53 5 45 -10 -7 -21 41 -21 93 l0
36 193 -1 c105 0 224 2 264 5 l72 6 15 -62 c9 -34 16 -72 16 -85 l1 -23 14 25
c18 32 19 51 2 44 -9 -3 -17 10 -25 43 -6 26 -8 51 -4 54 4 4 54 10 112 14
139 10 156 11 220 19 30 3 80 8 110 11 63 5 53 17 105 -120 22 -57 24 -59 33
-35 10 27 4 50 -8 30 -5 -9 -10 -5 -15 11 -4 13 -17 44 -28 67 -25 54 -21 57
82 67 41 4 85 9 96 10 11 2 43 6 70 9 130 16 176 23 183 31 3 2 -16 85 -41
183 -26 99 -47 182 -47 185 0 4 16 7 35 7 19 0 35 3 35 8 0 9 -653 284 -666
281 -5 -2 -25 2 -44 8 -30 10 -259 83 -610 195 -52 17 -107 36 -121 44 -21 11
-30 10 -53 -1z m-46 -563 c0 -26 4 -53 8 -60 5 -7 6 15 4 47 l-4 59 218 -3
c121 -2 325 -4 455 -6 l236 -2 63 -156 c35 -86 71 -177 81 -203 l19 -48 -38
-1 c-42 -1 -79 -4 -202 -13 -47 -3 -126 -9 -176 -12 l-91 -5 -42 158 c-54 203
-52 195 -57 190 -3 -2 16 -80 41 -172 26 -92 44 -169 41 -172 -7 -8 -207 -17
-366 -18 l-145 0 -12 100 -11 100 5 -101 5 -100 -363 2 c-200 2 -459 3 -575 3
l-212 1 14 73 c19 99 19 97 48 231 15 66 27 121 29 122 7 7 143 14 372 20 143
3 261 7 262 8 1 0 89 2 197 3 l196 1 0 -46z m1418 23 c4 -4 101 -326 102 -336
0 -6 -71 -18 -180 -33 -19 -3 -75 -7 -125 -11 -49 -3 -97 -8 -106 -11 -13 -4
-28 23 -69 123 -29 70 -65 159 -81 197 -15 38 -27 72 -24 76 4 6 476 2 483 -5z"/>
<path d="M3452 2530 c0 -8 4 -26 8 -40 6 -20 8 -21 8 -5 0 11 -3 29 -8 40 -5
12 -8 14 -8 5z"/>
<path d="M2804 2496 c-28 -12 -94 -88 -94 -109 0 -11 -134 -199 -154 -216 -9
-8 -18 -12 -21 -10 -2 2 9 63 26 134 33 151 34 159 14 179 -30 29 -69 -1 -153
-118 -64 -89 -74 -83 -43 24 18 63 18 72 4 86 -22 22 -46 14 -61 -21 -24 -54
-28 -58 -68 -70 -35 -10 -40 -9 -59 13 -18 21 -23 22 -47 11 -37 -16 -42 -36
-13 -55 l24 -16 -19 -50 c-21 -55 -46 -88 -67 -88 -7 0 -14 9 -14 20 -1 11 -2
26 -3 33 -3 21 35 159 55 201 11 24 15 44 10 49 -53 53 -163 -205 -120 -285
14 -26 74 -51 102 -42 36 11 52 30 77 99 24 62 27 65 65 73 39 8 40 7 43 -23
1 -16 5 -40 7 -53 6 -23 39 -62 54 -62 4 0 43 49 85 110 68 97 96 131 96 117
0 -3 -7 -24 -15 -48 -33 -92 -46 -190 -31 -236 18 -58 86 -28 141 62 22 35 43
64 48 65 4 0 7 -12 7 -28 0 -28 22 -67 50 -89 21 -17 76 -16 116 3 57 27 163
163 152 196 -2 5 -37 -24 -77 -66 -114 -116 -178 -137 -167 -53 3 23 5 52 5
63 1 15 9 24 25 28 57 14 123 97 112 140 -4 17 -45 48 -59 46 -1 -1 -16 -7
-33 -14z m45 -58 c-23 -45 -59 -74 -59 -49 0 13 50 71 61 71 6 0 5 -10 -2 -22z"/>
<path d="M3008 2395 c2 -19 6 -35 8 -35 2 0 4 16 4 35 0 19 -4 35 -8 35 -4 0
-6 -16 -4 -35z"/>
<path d="M3013 2330 c5 -31 17 -37 15 -7 -1 15 -6 27 -10 27 -4 0 -7 -9 -5
-20z"/>
<path d="M535 2891 c-156 -71 -318 -394 -319 -636 0 -121 24 -177 86 -205 98
-43 225 12 383 165 l31 31 28 -28 c15 -15 36 -28 46 -28 21 0 86 78 115 138
21 43 36 55 30 25 -17 -93 -16 -123 1 -152 24 -41 65 -57 104 -41 17 7 30 15
30 19 0 3 14 22 31 41 l30 35 -6 -64 c-3 -35 -12 -109 -20 -165 -42 -301 -42
-284 -11 -292 31 -7 38 -3 41 28 2 13 5 44 9 68 3 25 8 65 11 90 18 153 119
376 219 484 48 51 75 56 71 13 -8 -69 -51 -139 -98 -158 -43 -17 -43 -16 -22
-39 23 -26 39 -25 75 2 80 59 117 179 76 241 -54 80 -134 21 -241 -173 l-36
-65 5 60 c3 33 8 89 11 125 4 36 8 77 10 91 6 31 -19 69 -34 54 -5 -5 -13 -26
-16 -45 -28 -172 -25 -163 -103 -260 -53 -65 -71 -78 -83 -59 -16 25 -8 103
21 214 21 83 26 114 18 129 -10 19 -11 19 -32 -6 -11 -14 -49 -65 -84 -114
-34 -49 -75 -105 -91 -124 l-30 -35 5 35 c3 19 20 62 38 95 29 51 37 60 60 58
16 -1 26 3 26 12 0 17 -38 45 -61 45 -30 0 -75 -47 -99 -102 -30 -70 -41 -83
-151 -178 -103 -88 -194 -140 -245 -140 -29 0 -36 5 -55 42 -28 55 -31 139 -9
247 47 229 159 425 276 481 37 19 47 20 60 9 29 -24 5 -122 -69 -282 -32 -69
-38 -90 -28 -100 17 -16 40 14 96 128 60 120 72 171 56 224 -20 70 -84 95
-156 62z"/>
<path d="M1558 2803 c7 -3 16 -2 19 1 4 3 -2 6 -13 5 -11 0 -14 -3 -6 -6z"/>
<path d="M1750 2100 c0 -5 5 -10 11 -10 5 0 7 5 4 10 -3 6 -8 10 -11 10 -2 0
-4 -4 -4 -10z"/>
<path d="M2406 1887 c7 -25 23 -54 25 -47 7 35 2 59 -14 64 -14 3 -17 0 -11
-17z"/>
<path d="M1285 1792 c-18 -2 -20 -9 -17 -72 2 -39 8 -70 13 -70 5 0 9 11 9 25
0 18 7 26 25 31 26 6 42 41 32 68 -6 15 -32 23 -62 18z m43 -39 c2 -14 -4 -26
-17 -33 -19 -10 -21 -8 -21 25 0 29 3 36 18 33 9 -2 18 -13 20 -25z"/>
<path d="M1515 1788 c-48 -26 -60 -83 -25 -118 44 -44 130 -8 130 55 0 35 -21
65 -45 65 -7 0 -19 2 -27 5 -7 2 -22 0 -33 -7z m67 -25 c37 -33 13 -95 -37
-95 -16 0 -34 7 -42 18 -42 58 26 125 79 77z"/>
<path d="M2163 1792 l-33 -3 0 -70 0 -69 35 0 c19 0 35 5 35 10 0 6 -6 10 -12
9 -29 -4 -38 2 -38 26 0 20 5 25 25 25 14 0 25 4 25 9 0 5 -11 8 -25 5 -21 -4
-25 -1 -25 20 0 20 4 24 25 21 14 -1 28 1 30 6 8 11 -6 15 -42 11z"/>
<path d="M2280 1792 c-59 -19 -78 -86 -34 -121 27 -22 84 -29 84 -11 0 6 -13
10 -29 10 -78 0 -81 101 -3 104 18 0 31 5 29 10 -4 11 -26 15 -47 8z"/>
<path d="M2394 1784 c-70 -34 -47 -133 31 -133 79 0 109 106 38 138 -30 14
-31 14 -69 -5z m67 -14 c23 -13 26 -72 4 -90 -40 -33 -97 -1 -89 50 8 43 45
61 85 40z"/>
<path d="M2990 1788 c-62 -23 -83 -91 -38 -122 27 -19 79 -21 96 -4 16 16 15
58 -2 58 -9 0 -12 -8 -9 -24 6 -27 -19 -38 -55 -25 -27 10 -36 31 -28 63 5 22
26 35 64 42 20 4 25 11 10 16 -7 3 -24 1 -38 -4z"/>
<path d="M3455 1792 l-30 -3 -1 -69 0 -70 33 0 c17 0 35 5 38 10 4 6 -7 10
-24 10 -27 0 -30 3 -29 25 2 20 8 25 33 26 29 2 29 2 3 6 -46 7 -49 54 -3 48
14 -1 25 1 25 6 0 12 -12 15 -45 11z"/>
<path d="M3622 1787 c-25 -14 -52 -49 -52 -70 0 -28 45 -67 79 -67 16 0 33 5
36 10 4 6 -8 10 -28 10 -40 0 -66 25 -61 59 6 31 33 52 62 46 14 -4 22 -1 22
8 0 15 -32 17 -58 4z"/>
<path d="M4203 1793 c-27 -5 -63 -48 -63 -75 0 -30 45 -68 80 -68 16 0 30 5
30 10 0 6 -13 10 -30 10 -36 0 -65 38 -55 70 7 23 50 44 73 35 8 -3 12 0 10 7
-5 14 -15 17 -45 11z"/>
<path d="M1375 1720 l0 -70 38 0 c20 0 37 5 37 10 0 6 -13 10 -29 10 -22 0
-28 4 -26 18 2 9 4 20 4 25 1 4 13 7 27 7 14 0 23 4 20 9 -3 5 -15 7 -27 4
-17 -5 -20 -2 -17 18 2 17 9 24 25 24 11 0 25 3 29 8 4 4 -13 7 -37 7 l-44 0
0 -70z"/>
<path d="M1647 1733 c1 -32 2 -64 2 -70 1 -7 6 -13 12 -13 7 0 9 9 6 21 -5 17
1 24 24 32 30 12 46 44 35 72 -3 10 -19 15 -43 15 l-38 0 2 -57z m51 38 c20
-12 10 -45 -14 -49 -18 -3 -20 1 -16 28 5 32 9 35 30 21z"/>
<path d="M1756 1723 l0 -68 37 -3 c23 -2 37 1 37 9 0 6 -8 9 -20 6 -27 -7 -34
8 -32 70 1 35 -3 53 -11 53 -8 0 -12 -21 -11 -67z"/>
<path d="M1850 1720 l0 -70 35 0 c19 0 35 5 35 10 0 6 -11 10 -25 10 -20 0
-25 5 -25 25 0 20 5 25 25 25 14 0 25 4 25 9 0 4 -11 6 -25 3 -21 -4 -25 -1
-25 21 0 22 4 25 24 21 14 -2 28 0 31 6 4 6 -10 10 -34 10 l-41 0 0 -70z"/>
<path d="M2012 1723 c3 -65 4 -68 29 -71 15 -2 32 5 42 16 15 16 15 20 1 40
-8 12 -24 22 -35 22 -14 0 -19 7 -19 26 0 33 33 30 38 -4 5 -32 24 -27 20 6
-3 23 -8 27 -41 30 l-38 3 3 -68z m42 -9 c20 -8 21 -40 2 -47 -19 -7 -26 1
-26 30 0 25 1 26 24 17z"/>
<path d="M2532 1742 c0 -27 -3 -59 -7 -72 -5 -16 -4 -21 6 -18 8 3 14 16 15
29 3 76 4 77 30 27 13 -27 28 -48 32 -48 4 0 14 15 20 34 21 57 37 61 39 9 2
-44 8 -61 18 -52 8 9 -7 139 -16 139 -5 0 -20 -23 -35 -51 l-26 -52 -19 34
c-11 19 -23 40 -27 48 -18 32 -30 21 -30 -27z"/>
<path d="M2721 1720 c0 -48 4 -70 12 -70 10 0 13 53 8 133 -1 4 -5 7 -10 7 -5
0 -10 -31 -10 -70z"/>
<path d="M2776 1723 c1 -42 6 -69 14 -71 8 -3 10 10 7 42 -2 26 -1 49 3 51 3
2 26 -20 51 -48 l44 -52 5 60 c5 63 3 85 -10 85 -4 0 -6 -22 -5 -50 1 -27 -1
-50 -4 -50 -3 1 -24 23 -46 50 -22 28 -44 50 -50 50 -6 0 -9 -28 -9 -67z"/>
<path d="M3130 1780 c0 -6 6 -10 13 -9 30 4 34 -3 33 -58 -1 -32 4 -58 10 -60
7 -2 10 15 8 49 -2 56 8 80 32 71 8 -3 14 0 14 6 0 7 -21 11 -55 11 -32 0 -55
-4 -55 -10z"/>
<path d="M3266 1728 c2 -81 2 -80 15 -73 6 4 8 13 5 21 -11 28 5 44 46 44 35
0 39 -3 38 -22 -3 -36 -1 -48 10 -48 5 0 9 32 9 70 0 49 -4 70 -13 70 -8 0
-11 -10 -8 -29 4 -29 3 -30 -41 -28 -42 1 -44 3 -42 29 2 16 -2 28 -9 28 -8 0
-12 -20 -10 -62z"/>
<path d="M3716 1725 c0 -36 5 -64 10 -63 5 2 9 14 9 28 0 22 5 25 43 28 l42 3
0 -35 c0 -20 5 -36 10 -36 6 0 10 30 10 70 0 40 -4 70 -10 70 -5 0 -10 -13
-10 -30 0 -26 -3 -30 -27 -29 -52 3 -60 8 -55 34 3 17 0 25 -10 25 -10 0 -13
-16 -12 -65z"/>
<path d="M3876 1728 c2 -36 8 -64 16 -69 25 -16 66 -10 82 13 20 27 22 118 4
118 -9 0 -12 -15 -9 -52 4 -57 -13 -80 -49 -71 -20 5 -23 18 -23 86 0 23 -4
37 -12 37 -9 0 -12 -17 -9 -62z"/>
<path d="M4025 1723 c1 -44 5 -68 14 -71 8 -3 11 4 9 18 -5 34 16 35 46 4 14
-16 28 -25 32 -21 4 4 -3 18 -16 32 -19 20 -21 27 -10 40 7 8 10 25 6 40 -5
21 -12 25 -44 25 l-38 0 1 -67z m63 29 c2 -13 -5 -25 -17 -32 -16 -8 -21 -8
-23 2 -4 36 -4 44 -1 50 7 14 38 0 41 -20z"/>
<path d="M4286 1728 c3 -82 3 -83 12 -74 4 4 7 20 7 34 0 25 3 27 43 28 38 2
43 0 41 -20 -2 -33 0 -46 10 -46 4 0 8 32 9 70 0 49 -3 70 -12 70 -6 0 -12
-12 -11 -27 0 -23 -4 -26 -37 -29 -38 -4 -41 -1 -41 39 0 9 -5 17 -11 17 -8 0
-12 -20 -10 -62z"/>
</g>
</svg>
